<?xml version="1.0" standalone="no"?>
<!DOCTYPE svg PUBLIC "-//W3C//DTD SVG 20010904//EN"
 "http://www.w3.org/TR/2001/REC-SVG-20010904/DTD/svg10.dtd">
<svg version="1.0" xmlns="http://www.w3.org/2000/svg"
 width="277.000000pt" height="232.000000pt" viewBox="0 0 277.000000 232.000000"
 preserveAspectRatio="xMidYMid meet">
<metadata>
Created by potrace 1.16, written by Peter Selinger 2001-2019
</metadata>
<g transform="translate(0.000000,232.000000) scale(0.100000,-0.100000)"
fill="#000000" stroke="none">
<path d="M207 2185 c-9 -9 -17 -24 -17 -34 0 -88 138 -272 370 -494 l121 -115
-21 -74 c-30 -108 -37 -263 -16 -368 38 -186 102 -313 220 -438 164 -172 375
-263 611 -263 61 0 142 6 182 15 88 18 223 75 288 121 27 19 53 35 58 35 5 0
33 -14 60 -31 90 -55 310 -165 397 -198 164 -61 246 -75 288 -45 73 51 -44
232 -332 516 l-139 138 17 57 c9 33 12 59 6 61 -5 2 -7 51 -3 121 5 95 2 134
-12 195 -10 42 -21 76 -26 76 -4 0 -5 -10 -1 -22 5 -21 4 -22 -11 -9 -9 7 -17
11 -17 8 0 -4 -19 0 -42 9 -41 14 -65 11 -38 -6 8 -5 11 -12 7 -16 -3 -4 -13
-1 -22 6 -8 7 -15 8 -15 3 0 -6 25 -27 55 -47 59 -39 66 -51 35 -61 -11 -3
-20 -11 -20 -16 0 -14 -46 -3 -120 27 -69 28 -82 30 -54 9 17 -13 13 -14 -49
-11 -45 3 -77 11 -94 23 -14 10 -35 24 -47 30 -13 8 -16 13 -6 13 8 0 0 12
-19 28 -23 19 -33 36 -34 57 -1 23 -17 46 -67 95 -35 35 -59 60 -51 56 10 -6
12 -4 7 12 -4 11 -2 23 4 27 7 4 6 13 -1 28 -11 21 -11 21 7 7 35 -28 113 -64
121 -57 4 5 1 12 -6 16 -7 5 -10 14 -7 20 4 6 -7 29 -24 51 -31 39 -33 64 -5
54 10 -4 12 0 8 17 l-6 23 34 -21 c104 -62 118 -68 132 -51 10 14 20 15 71 6
39 -7 66 -18 78 -32 9 -11 17 -17 18 -12 0 5 -7 18 -17 28 -9 10 -13 21 -9 25
4 4 27 -15 51 -42 32 -34 44 -55 40 -70 -3 -11 -2 -14 1 -7 10 21 22 13 29
-18 4 -17 13 -37 22 -45 8 -8 10 -15 4 -15 -5 0 -17 10 -25 22 -19 26 -20 22
-5 -20 6 -17 14 -30 19 -29 4 1 19 -11 34 -26 38 -41 32 -13 -16 81 -78 148
-181 258 -324 346 -61 37 -183 85 -217 86 -11 0 -21 9 -24 19 -7 26 -83 36
-223 28 -151 -9 -298 -60 -426 -148 l-41 -28 -49 31 c-84 53 -375 195 -459
223 -103 35 -214 44 -238 20z m353 -137 c84 -26 350 -153 350 -167 0 -16 -7
-14 -84 24 -231 113 -376 135 -376 57 0 -49 126 -228 229 -326 31 -30 39 -46
22 -46 -16 0 -192 186 -252 267 -92 123 -108 194 -45 212 38 10 71 6 156 -21z
m178 -157 c31 -11 75 -27 96 -36 34 -15 37 -18 24 -31 -13 -13 -19 -13 -54 0
-59 22 -105 28 -120 15 -22 -18 -16 -55 12 -86 l25 -28 -22 32 c-15 22 -20 39
-15 57 5 22 10 25 39 20 17 -4 51 -12 74 -20 23 -7 49 -11 58 -8 19 8 20 -10
1 -25 -15 -13 -49 -4 -40 10 10 17 -10 9 -33 -13 -28 -26 -29 -37 -2 -85 111
-200 602 -605 1019 -841 111 -63 291 -142 324 -142 14 0 62 61 58 74 -5 14 9
46 19 46 6 0 8 -4 4 -9 -3 -5 0 -13 6 -17 7 -4 9 -3 6 2 -3 6 -2 16 3 24 7 11
11 11 24 1 30 -25 110 -144 124 -185 13 -38 12 -42 -8 -58 -30 -24 -45 -23
-152 12 -110 36 -127 45 -112 60 8 8 26 7 68 -5 30 -9 68 -14 83 -12 26 4 25
4 -5 6 -19 0 -31 5 -27 11 3 6 -1 7 -9 4 -65 -25 -381 134 -675 339 -250 173
-385 280 -591 468 -130 119 -144 135 -134 150 4 8 3 10 -4 5 -14 -8 -45 25
-52 56 -3 12 -11 23 -18 24 -7 1 -8 0 -2 -3 14 -7 12 -53 -2 -53 -13 1 -62 61
-110 137 -29 45 -37 108 -15 116 26 11 80 6 135 -12z m1627 -1093 c121 -128
179 -202 212 -275 24 -51 25 -59 12 -82 -22 -40 -86 -40 -201 0 -126 43 -354
157 -340 171 7 7 27 0 63 -20 75 -41 227 -100 291 -113 38 -8 61 -7 82 0 27
11 28 14 23 53 -7 53 -75 152 -183 268 -46 49 -84 92 -84 95 0 23 43 -10 125
-97z"/>
</g>
</svg>
